<svg width="103" height="17" viewBox="0 0 103 17" fill="none" xmlns="http://www.w3.org/2000/svg">
<g clip-path="url(#clip0_9_126)">
<path d="M91.7519 15.9999V0.543945H96.2639V12.5439H103.224V15.9999H91.7519Z" fill="white"/>
<path d="M85.0722 15.9999V0.543945H89.5842V15.9999H85.0722Z" fill="white"/>
<path d="M75.496 16.24C72.936 16.24 70.976 15.616 69.616 14.368C68.272 13.12 67.6 11.104 67.6 8.31996C67.6 6.39996 67.904 4.85596 68.512 3.68796C69.12 2.50396 70.008 1.64796 71.176 1.11996C72.36 0.575955 73.8 0.303955 75.496 0.303955C77.192 0.303955 78.624 0.575955 79.792 1.11996C80.976 1.64796 81.872 2.50396 82.48 3.68796C83.088 4.85596 83.392 6.39996 83.392 8.31996C83.392 11.104 82.712 13.12 81.352 14.368C79.992 15.616 78.04 16.24 75.496 16.24ZM75.496 12.4C76.648 12.4 77.48 12.08 77.992 11.44C78.52 10.784 78.784 9.74396 78.784 8.31996C78.784 6.79996 78.52 5.72796 77.992 5.10396C77.48 4.46396 76.648 4.14396 75.496 4.14396C74.344 4.14396 73.504 4.46396 72.976 5.10396C72.464 5.72796 72.208 6.79996 72.208 8.31996C72.208 9.74396 72.464 10.784 72.976 11.44C73.504 12.08 74.344 12.4 75.496 12.4Z" fill="white"/>
<path d="M52.0253 15.9999V0.543945H60.0653C61.3293 0.543945 62.3613 0.775946 63.1613 1.23995C63.9773 1.70395 64.5853 2.35195 64.9853 3.18395C65.3853 3.99995 65.5853 4.95195 65.5853 6.03995C65.5853 7.07995 65.3213 7.99995 64.7933 8.79995C64.2813 9.58395 63.5933 10.1839 62.7293 10.5999C62.9053 10.7439 63.0573 10.9199 63.1853 11.1279C63.3133 11.3199 63.4573 11.5919 63.6173 11.9439L65.3933 15.9999H60.6893L59.0573 12.2799C58.9293 11.9919 58.7693 11.7919 58.5773 11.6799C58.4013 11.5519 58.1453 11.4879 57.8093 11.4879H56.5373V15.9999H52.0253ZM56.5373 8.03195H58.9133C59.5693 8.03195 60.0733 7.86395 60.4253 7.52795C60.7933 7.17595 60.9773 6.67995 60.9773 6.03995C60.9773 4.67995 60.3373 3.99995 59.0573 3.99995H56.5373V8.03195Z" fill="white"/>
<path d="M33.7094 15.9999L39.6374 0.543945H44.4134L50.3414 15.9999H45.6374L44.3414 12.7119H39.6854L38.4134 15.9999H33.7094ZM40.2854 9.47195H43.7414L42.0134 4.93595L40.2854 9.47195Z" fill="white"/>
<path d="M28.216 16.24C25.416 16.24 23.28 15.552 21.808 14.176C20.336 12.8 19.6 10.856 19.6 8.34396C19.6 5.75196 20.32 3.76796 21.76 2.39196C23.2 0.999955 25.344 0.303955 28.192 0.303955C29.152 0.303955 30.008 0.375955 30.76 0.519955C31.512 0.663955 32.232 0.863955 32.92 1.11996V5.05596C31.544 4.44796 30.072 4.14396 28.504 4.14396C27.048 4.14396 25.968 4.47996 25.264 5.15196C24.56 5.80796 24.208 6.87196 24.208 8.34396C24.208 9.78396 24.576 10.824 25.312 11.464C26.064 12.088 27.144 12.4 28.552 12.4C29.32 12.4 30.064 12.328 30.784 12.184C31.52 12.04 32.248 11.816 32.968 11.512V15.472C32.28 15.712 31.552 15.896 30.784 16.024C30.032 16.168 29.176 16.24 28.216 16.24Z" fill="white"/>
<path fill-rule="evenodd" clip-rule="evenodd" d="M17 1H15.1225C6.77056 1 0 7.77057 0 16.1225H4.66667C4.70855 15.9494 4.73781 15.6923 4.77329 15.3805C4.9731 13.6246 5.37038 10.1334 9.33333 10.1334C13.3178 10.1334 13.5446 14.0577 13.6417 15.7371C13.6502 15.8842 13.6577 16.014 13.6667 16.1225H17V1ZM13.6667 3.16455V7.99087H4.66666C5.45613 6.58968 8.3614 3.66275 13.6667 3.16455Z" fill="white"/>
<path fill-rule="evenodd" clip-rule="evenodd" d="M9.16665 17C10.7315 17 12 15.7755 12 14.2651C12 12.7546 10.7315 11.5302 9.16665 11.5302C7.60184 11.5302 6.33331 12.7546 6.33331 14.2651C6.33331 15.7755 7.60184 17 9.16665 17ZM9.16668 12.8172C9.79553 13.6665 10.6759 15.3702 9.16668 15.391C7.65743 15.4118 8.53782 13.6838 9.16668 12.8172Z" fill="white"/>
</g>
<defs>
<clipPath id="clip0_9_126">
<rect width="103" height="17" fill="white"/>
</clipPath>
</defs>
</svg>
