<svg width="103" height="18" viewBox="0 0 103 18" fill="none" xmlns="http://www.w3.org/2000/svg">
<g clip-path="url(#clip0_4_21)">
<path d="M91.7519 16.5V1.04401H96.2639V13.044H103.224V16.5H91.7519Z" fill="#F16414"/>
<path d="M85.0722 16.5V1.04401H89.5842V16.5H85.0722Z" fill="#F16414"/>
<path d="M75.496 16.74C72.936 16.74 70.976 16.116 69.616 14.868C68.272 13.62 67.6 11.604 67.6 8.81999C67.6 6.89999 67.904 5.35599 68.512 4.18799C69.12 3.00399 70.008 2.14799 71.176 1.61999C72.36 1.07599 73.8 0.803986 75.496 0.803986C77.192 0.803986 78.624 1.07599 79.792 1.61999C80.976 2.14799 81.872 3.00399 82.48 4.18799C83.088 5.35599 83.392 6.89999 83.392 8.81999C83.392 11.604 82.712 13.62 81.352 14.868C79.992 16.116 78.04 16.74 75.496 16.74ZM75.496 12.9C76.648 12.9 77.48 12.58 77.992 11.94C78.52 11.284 78.784 10.244 78.784 8.81999C78.784 7.29999 78.52 6.22799 77.992 5.60399C77.48 4.96399 76.648 4.64399 75.496 4.64399C74.344 4.64399 73.504 4.96399 72.976 5.60399C72.464 6.22799 72.208 7.29999 72.208 8.81999C72.208 10.244 72.464 11.284 72.976 11.94C73.504 12.58 74.344 12.9 75.496 12.9Z" fill="#F16414"/>
<path d="M52.0253 16.5V1.04401H60.0653C61.3293 1.04401 62.3613 1.27601 63.1613 1.74001C63.9773 2.20401 64.5853 2.85201 64.9853 3.68401C65.3853 4.50001 65.5853 5.45201 65.5853 6.54001C65.5853 7.58001 65.3213 8.50001 64.7933 9.30001C64.2813 10.084 63.5933 10.684 62.7293 11.1C62.9053 11.244 63.0573 11.42 63.1853 11.628C63.3133 11.82 63.4573 12.092 63.6173 12.444L65.3933 16.5H60.6893L59.0573 12.78C58.9293 12.492 58.7693 12.292 58.5773 12.18C58.4013 12.052 58.1453 11.988 57.8093 11.988H56.5373V16.5H52.0253ZM56.5373 8.53201H58.9133C59.5693 8.53201 60.0733 8.36401 60.4253 8.02801C60.7933 7.67601 60.9773 7.18001 60.9773 6.54001C60.9773 5.18001 60.3373 4.50001 59.0573 4.50001H56.5373V8.53201Z" fill="#2825E1"/>
<path d="M33.7094 16.5L39.6374 1.04401H44.4134L50.3414 16.5H45.6374L44.3414 13.212H39.6854L38.4134 16.5H33.7094ZM40.2854 9.97201H43.7414L42.0134 5.43601L40.2854 9.97201Z" fill="#2825E1"/>
<path d="M28.216 16.74C25.416 16.74 23.28 16.052 21.808 14.676C20.336 13.3 19.6 11.356 19.6 8.84399C19.6 6.25199 20.32 4.26799 21.76 2.89199C23.2 1.49999 25.344 0.803986 28.192 0.803986C29.152 0.803986 30.008 0.875985 30.76 1.01999C31.512 1.16399 32.232 1.36399 32.92 1.61999V5.55599C31.544 4.94799 30.072 4.64399 28.504 4.64399C27.048 4.64399 25.968 4.97999 25.264 5.65199C24.56 6.30799 24.208 7.37199 24.208 8.84399C24.208 10.284 24.576 11.324 25.312 11.964C26.064 12.588 27.144 12.9 28.552 12.9C29.32 12.9 30.064 12.828 30.784 12.684C31.52 12.54 32.248 12.316 32.968 12.012V15.972C32.28 16.212 31.552 16.396 30.784 16.524C30.032 16.668 29.176 16.74 28.216 16.74Z" fill="#2825E1"/>
<path fill-rule="evenodd" clip-rule="evenodd" d="M17 1.5H15.1225C6.77056 1.5 0 8.27057 0 16.6225H4.66667C4.70855 16.4494 4.73781 16.1923 4.77329 15.8805C4.9731 14.1246 5.37038 10.6334 9.33333 10.6334C13.3178 10.6334 13.5446 14.5577 13.6417 16.2371C13.6502 16.3842 13.6577 16.514 13.6667 16.6225H17V1.5ZM13.6667 3.66455V8.49087H4.66666C5.45613 7.08968 8.3614 4.16275 13.6667 3.66455Z" fill="#2825E1"/>
<path fill-rule="evenodd" clip-rule="evenodd" d="M9.16665 17.5C10.7315 17.5 12 16.2756 12 14.7651C12 13.2546 10.7315 12.0302 9.16665 12.0302C7.60184 12.0302 6.33331 13.2546 6.33331 14.7651C6.33331 16.2756 7.60184 17.5 9.16665 17.5ZM9.16668 13.3172C9.79553 14.1665 10.6759 15.8703 9.16668 15.8911C7.65743 15.9119 8.53782 14.1838 9.16668 13.3172Z" fill="#F16414"/>
</g>
<defs>
<clipPath id="clip0_4_21">
<rect width="103" height="17" fill="white" transform="translate(0 0.5)"/>
</clipPath>
</defs>
</svg>
