<svg width="20" height="20" viewBox="0 0 20 20" fill="none" xmlns="http://www.w3.org/2000/svg">
<g clip-path="url(#clip0_14_165)">
<path d="M17.0055 13.6222C16.1129 12.655 15.0295 11.8831 13.8239 11.3552C12.6182 10.8272 11.3162 10.5547 9.99999 10.5547C8.68378 10.5547 7.38183 10.8272 6.17614 11.3552C4.97044 11.8831 3.88713 12.655 2.99444 13.6222C2.85661 13.7746 2.77952 13.9723 2.77777 14.1778V17.5111C2.78069 17.7302 2.86978 17.9393 3.02574 18.0932C3.18171 18.2471 3.392 18.3333 3.6111 18.3333H16.3889C16.6099 18.3333 16.8219 18.2455 16.9781 18.0892C17.1344 17.933 17.2222 17.721 17.2222 17.5V14.1667C17.2178 13.965 17.1409 13.7718 17.0055 13.6222Z" fill="#2825E1"/>
<path d="M9.99997 9.44443C12.1477 9.44443 13.8889 7.70332 13.8889 5.55555C13.8889 3.40777 12.1477 1.66666 9.99997 1.66666C7.8522 1.66666 6.11108 3.40777 6.11108 5.55555C6.11108 7.70332 7.8522 9.44443 9.99997 9.44443Z" fill="#2825E1"/>
</g>
<defs>
<clipPath id="clip0_14_165">
<rect width="20" height="20" fill="white"/>
</clipPath>
</defs>
</svg>
